<?xml version="1.0" standalone="no"?>
<!DOCTYPE svg PUBLIC "-//W3C//DTD SVG 20010904//EN"
 "http://www.w3.org/TR/2001/REC-SVG-20010904/DTD/svg10.dtd">
<svg version="1.0" xmlns="http://www.w3.org/2000/svg"
 width="740.000000pt" height="493.000000pt" viewBox="0 0 740.000000 493.000000"
 preserveAspectRatio="xMidYMid meet">

<g transform="translate(0.000000,493.000000) scale(0.100000,-0.100000)"
fill="#000000" stroke="none">
<path d="M4053 3923 c15 -2 37 -2 50 0 12 2 0 4 -28 4 -27 0 -38 -2 -22 -4z"/>
<path d="M3989 3901 c-13 -11 -22 -21 -19 -23 3 -2 16 6 29 19 29 28 22 30
-10 4z"/>
<path d="M4219 3861 c23 -23 41 -46 41 -53 0 -6 3 -8 6 -5 9 9 -41 74 -67 88
-11 6 -2 -8 20 -30z"/>
<path d="M3961 3844 c0 -11 3 -14 6 -6 3 7 2 16 -1 19 -3 4 -6 -2 -5 -13z"/>
<path d="M3834 3814 c-10 -8 -13 -12 -6 -9 8 4 26 11 40 15 22 7 23 8 6 9 -11
1 -29 -6 -40 -15z"/>
<path d="M3918 3807 c14 -6 26 -7 32 -1 5 5 -4 9 -23 10 -30 1 -30 1 -9 -9z"/>
<path d="M4270 3781 c0 -10 29 -36 34 -30 1 2 -6 12 -16 22 -10 9 -18 13 -18
8z"/>
<path d="M3173 3773 c9 -2 25 -2 35 0 9 3 1 5 -18 5 -19 0 -27 -2 -17 -5z"/>
<path d="M3263 3773 c9 -2 25 -2 35 0 9 3 1 5 -18 5 -19 0 -27 -2 -17 -5z"/>
<path d="M3806 3763 c-6 -14 -5 -15 5 -6 7 7 10 15 7 18 -3 3 -9 -2 -12 -12z"/>
<path d="M3338 3763 c7 -3 16 -2 19 1 4 3 -2 6 -13 5 -11 0 -14 -3 -6 -6z"/>
<path d="M4340 3763 c14 -3 32 -10 40 -16 13 -11 13 -10 1 6 -7 9 -25 16 -40
16 l-26 -2 25 -4z"/>
<path d="M3733 3748 c-19 -25 -24 -43 -6 -21 10 11 27 23 38 26 19 4 19 5 -1
6 -12 0 -26 -5 -31 -11z"/>
<path d="M3410 3740 c8 -5 20 -10 25 -10 6 0 3 5 -5 10 -8 5 -19 10 -25 10 -5
0 -3 -5 5 -10z"/>
<path d="M4396 3717 c3 -10 9 -15 12 -12 3 3 0 11 -7 18 -10 9 -11 8 -5 -6z"/>
<path d="M3004 3698 l-19 -23 23 19 c12 11 22 21 22 23 0 8 -8 2 -26 -19z"/>
<path d="M3510 3693 c14 -10 54 -45 90 -78 l65 -59 -58 60 c-31 33 -72 68 -90
77 -31 17 -31 17 -7 0z"/>
<path d="M3630 3695 c-11 -13 33 -15 386 -13 l399 3 -388 2 c-252 2 -386 7
-382 13 10 15 -1 12 -15 -5z"/>
<path d="M1548 3482 c-219 -200 -270 -249 -218 -207 27 22 342 307 407 368
l41 40 31 -62 c17 -33 33 -61 36 -61 3 0 -10 29 -27 65 -18 36 -35 65 -38 65
-3 -1 -107 -94 -232 -208z"/>
<path d="M2966 3635 c-3 -9 -6 -22 -5 -28 0 -7 5 -1 10 12 5 13 8 26 5 28 -2
2 -6 -3 -10 -12z"/>
<path d="M1696 3472 c-59 -120 -77 -164 -73 -187 l4 -30 2 33 c0 18 34 99 77
183 41 83 74 153 72 155 -2 2 -39 -67 -82 -154z"/>
<path d="M2951 3564 c0 -11 3 -14 6 -6 3 7 2 16 -1 19 -3 4 -6 -2 -5 -13z"/>
<path d="M2940 3532 c0 -7 -9 -21 -20 -32 -11 -11 -16 -20 -10 -20 13 0 44 49
36 57 -3 3 -6 1 -6 -5z"/>
<path d="M2708 3523 c12 -2 30 -2 40 0 9 3 -1 5 -23 4 -22 0 -30 -2 -17 -4z"/>
<path d="M2632 3493 c-15 -16 -19 -21 -7 -12 11 9 29 21 40 27 11 6 14 12 8
12 -7 0 -25 -12 -41 -27z"/>
<path d="M2800 3500 c19 -11 40 -19 45 -19 6 0 -6 8 -25 19 -19 11 -39 19 -45
19 -5 0 6 -8 25 -19z"/>
<path d="M5722 3413 c-11 -10 -28 -31 -37 -48 -16 -30 -16 -30 2 -5 46 63 70
71 138 46 13 -5 11 -2 -5 8 -33 20 -73 20 -98 -1z"/>
<path d="M3730 3393 c0 -5 10 -18 23 -29 l22 -19 -20 25 c-11 14 -21 27 -22
29 -2 2 -3 0 -3 -6z"/>
<path d="M5523 3373 c-10 -10 -14 -15 -8 -11 6 4 22 12 36 17 15 6 18 10 8 10
-9 1 -25 -7 -36 -16z"/>
<path d="M5588 3383 c7 -3 16 -2 19 1 4 3 -2 6 -13 5 -11 0 -14 -3 -6 -6z"/>
<path d="M3888 3373 c12 -2 30 -2 40 0 9 3 -1 5 -23 4 -22 0 -30 -2 -17 -4z"/>
<path d="M2559 3353 c-13 -16 -12 -17 4 -4 16 13 21 21 13 21 -2 0 -10 -8 -17
-17z"/>
<path d="M3815 3360 c-13 -5 -14 -9 -5 -9 8 0 24 4 35 9 13 5 14 9 5 9 -8 0
-24 -4 -35 -9z"/>
<path d="M2418 3353 c6 -2 18 -2 25 0 6 3 1 5 -13 5 -14 0 -19 -2 -12 -5z"/>
<path d="M3970 3356 c0 -2 8 -10 18 -17 15 -13 16 -12 3 4 -13 16 -21 21 -21
13z"/>
<path d="M880 3133 c-393 -398 -605 -616 -594 -610 12 7 818 827 813 827 -2 0
-101 -98 -219 -217z"/>
<path d="M2468 3343 c7 -3 16 -2 19 1 4 3 -2 6 -13 5 -11 0 -14 -3 -6 -6z"/>
<path d="M2518 3333 c7 -3 16 -2 19 1 4 3 -2 6 -13 5 -11 0 -14 -3 -6 -6z"/>
<path d="M2025 3201 l65 -131 43 2 42 1 -41 4 -40 4 -60 120 c-32 67 -63 123
-67 126 -4 3 21 -54 58 -126z"/>
<path d="M1180 3310 c8 -5 20 -10 25 -10 6 0 3 5 -5 10 -8 5 -19 10 -25 10 -5
0 -3 -5 5 -10z"/>
<path d="M4037 3255 c9 -19 18 -33 21 -31 4 5 -26 66 -33 66 -3 0 3 -16 12
-35z"/>
<path d="M2341 3257 c-13 -21 -12 -21 5 -5 10 10 16 20 13 22 -3 3 -11 -5 -18
-17z"/>
<path d="M1121 3265 c0 -5 6 -21 14 -35 8 -14 14 -20 14 -15 0 6 -6 21 -14 35
-8 14 -14 21 -14 15z"/>
<path d="M2208 3243 c7 -3 16 -2 19 1 4 3 -2 6 -13 5 -11 0 -14 -3 -6 -6z"/>
<path d="M2268 3233 c12 -2 30 -2 40 0 9 3 -1 5 -23 4 -22 0 -30 -2 -17 -4z"/>
<path d="M5594 3224 c-10 -8 -13 -12 -5 -8 8 4 28 11 45 15 29 6 29 7 5 8 -14
1 -34 -6 -45 -15z"/>
<path d="M2125 3200 l-29 -30 987 0 987 0 -1 23 c-1 16 -2 18 -6 5 -4 -17 -59
-18 -975 -18 l-971 0 23 25 c13 14 21 25 19 25 -3 0 -18 -13 -34 -30z"/>
<path d="M5670 3226 c0 -2 7 -7 16 -10 8 -3 12 -2 9 4 -6 10 -25 14 -25 6z"/>
<path d="M6009 3193 l-24 -28 25 22 c14 11 34 23 45 26 19 5 19 5 -1 6 -11 0
-31 -11 -45 -26z"/>
<path d="M6080 3206 c0 -2 7 -7 16 -10 8 -3 12 -2 9 4 -6 10 -25 14 -25 6z"/>
<path d="M1185 3163 c22 -21 52 -48 67 -59 14 -11 28 -34 31 -50 l4 -29 1 30
c1 26 -9 38 -71 88 -40 32 -54 41 -32 20z"/>
<path d="M5421 3196 c2 -2 22 -6 44 -9 27 -4 35 -3 25 3 -14 9 -79 15 -69 6z"/>
<path d="M5556 3178 c-13 -19 -17 -20 -33 -7 -16 13 -17 12 -4 -3 18 -24 26
-23 45 7 20 31 13 34 -8 3z"/>
<path d="M5864 3174 c-10 -8 -13 -12 -5 -8 8 4 28 11 45 15 29 6 29 7 5 8 -14
1 -34 -6 -45 -15z"/>
<path d="M5967 3159 c7 -7 15 -10 18 -7 3 3 -2 9 -12 12 -14 6 -15 5 -6 -5z"/>
<path d="M1530 3100 c-22 -33 -38 -60 -36 -60 3 0 24 27 46 60 22 33 38 60 36
60 -3 0 -24 -27 -46 -60z"/>
<path d="M2227 3045 c-9 -13 -33 -36 -53 -51 -34 -26 -35 -26 -50 -8 -14 18
-15 18 -4 -3 6 -13 15 -23 20 -23 4 0 33 22 62 49 48 44 55 48 66 33 10 -14
11 -13 2 6 -13 28 -21 27 -43 -3z"/>
<path d="M1445 2974 c-9 -15 -12 -23 -6 -20 11 7 35 46 28 46 -3 0 -12 -12
-22 -26z"/>
<path d="M6515 2980 c-11 -12 -25 -18 -34 -15 -12 5 -13 3 -4 -6 9 -9 19 -6
43 15 17 14 27 26 22 26 -5 0 -17 -9 -27 -20z"/>
<path d="M1270 2947 c0 -23 -7 -54 -16 -67 l-16 -25 21 24 c15 16 21 37 21 67
0 24 -2 44 -5 44 -3 0 -5 -19 -5 -43z"/>
<path d="M2325 2930 c14 -27 28 -50 30 -50 3 0 -6 23 -20 50 -14 28 -28 50
-30 50 -3 0 6 -22 20 -50z"/>
<path d="M4368 2963 c6 -2 18 -2 25 0 6 3 1 5 -13 5 -14 0 -19 -2 -12 -5z"/>
<path d="M4300 2950 c-18 -12 -2 -12 25 0 13 6 15 9 5 9 -8 0 -22 -4 -30 -9z"/>
<path d="M4438 2953 c7 -3 16 -2 19 1 4 3 -2 6 -13 5 -11 0 -14 -3 -6 -6z"/>
<path d="M4252 2920 c-12 -12 -22 -24 -22 -27 0 -4 11 4 25 17 23 22 29 30 22
30 -2 0 -13 -9 -25 -20z"/>
<path d="M4540 2914 c60 -34 78 -51 112 -103 15 -25 28 -40 28 -34 0 36 -136
163 -174 163 -6 0 9 -12 34 -26z"/>
<path d="M2975 2871 c11 -5 76 -92 144 -195 l124 -186 -2 -508 c-2 -430 0
-518 13 -575 18 -75 52 -149 91 -195 l26 -31 -63 -4 c-35 -2 106 -4 312 -5
l375 -1 36 52 c63 92 86 170 101 340 3 26 8 22 88 -68 134 -152 143 -161 128
-139 -7 11 -58 71 -113 133 l-100 112 -5 417 -6 417 -28 80 c-16 46 -45 103
-69 135 -23 30 -41 58 -40 61 1 4 -3 6 -10 6 -7 -1 -43 14 -82 33 -70 35 -70
35 -210 35 -121 0 -147 -3 -195 -22 -86 -35 -153 -101 -199 -194 l-38 -79
-129 195 c-97 147 -134 194 -149 194 -20 0 -20 0 0 -8z m754 -362 c21 -8 39
-25 54 -53 20 -38 22 -58 25 -266 l4 -225 -25 23 c-23 22 -25 22 -38 5 -12
-16 -12 -17 2 -6 13 11 20 9 38 -11 22 -24 23 -27 19 -272 -3 -236 -4 -251
-26 -291 -26 -50 -47 -63 -102 -63 -34 0 -48 6 -70 30 -43 46 -50 95 -50 371
0 234 1 250 17 238 15 -13 15 -11 -1 13 -16 24 -17 49 -14 220 3 218 14 258
72 284 38 16 54 17 95 3z"/>
<path d="M3704 1958 l-19 -23 23 19 c21 18 27 26 19 26 -2 0 -12 -10 -23 -22z"/>
<path d="M3651 1920 c-13 -11 -19 -20 -14 -20 6 0 18 9 28 20 23 25 17 25 -14
0z"/>
<path d="M2928 2863 c7 -3 16 -2 19 1 4 3 -2 6 -13 5 -11 0 -14 -3 -6 -6z"/>
<path d="M2878 2853 c7 -3 16 -2 19 1 4 3 -2 6 -13 5 -11 0 -14 -3 -6 -6z"/>
<path d="M2828 2843 c6 -2 18 -2 25 0 6 3 1 5 -13 5 -14 0 -19 -2 -12 -5z"/>
<path d="M4211 2834 c0 -11 3 -14 6 -6 3 7 2 16 -1 19 -3 4 -6 -2 -5 -13z"/>
<path d="M2788 2833 c7 -3 16 -2 19 1 4 3 -2 6 -13 5 -11 0 -14 -3 -6 -6z"/>
<path d="M1190 2798 c-13 -18 -35 -48 -48 -65 -13 -18 -22 -33 -19 -33 4 0 75
91 91 118 14 24 -1 11 -24 -20z"/>
<path d="M2395 2800 c9 -16 18 -30 21 -30 2 0 -2 14 -11 30 -9 17 -18 30 -21
30 -2 0 2 -13 11 -30z"/>
<path d="M2748 2823 c7 -3 16 -2 19 1 4 3 -2 6 -13 5 -11 0 -14 -3 -6 -6z"/>
<path d="M2698 2813 c7 -3 16 -2 19 1 4 3 -2 6 -13 5 -11 0 -14 -3 -6 -6z"/>
<path d="M2658 2803 c7 -3 16 -2 19 1 4 3 -2 6 -13 5 -11 0 -14 -3 -6 -6z"/>
<path d="M4016 2789 c-14 -11 -26 -28 -25 -37 0 -13 3 -11 9 5 17 41 70 52
135 29 13 -5 11 -2 -5 8 -35 22 -83 20 -114 -5z"/>
<path d="M4196 2793 c-6 -14 -5 -15 5 -6 7 7 10 15 7 18 -3 3 -9 -2 -12 -12z"/>
<path d="M2608 2793 c7 -3 16 -2 19 1 4 3 -2 6 -13 5 -11 0 -14 -3 -6 -6z"/>
<path d="M2568 2783 c7 -3 16 -2 19 1 4 3 -2 6 -13 5 -11 0 -14 -3 -6 -6z"/>
<path d="M2518 2773 c7 -3 16 -2 19 1 4 3 -2 6 -13 5 -11 0 -14 -3 -6 -6z"/>
<path d="M5671 2754 c-17 -14 -31 -33 -31 -42 0 -12 4 -9 13 8 7 14 28 33 47
42 19 10 27 18 18 18 -9 0 -30 -12 -47 -26z"/>
<path d="M5768 2773 c6 -2 18 -2 25 0 6 3 1 5 -13 5 -14 0 -19 -2 -12 -5z"/>
<path d="M2478 2763 c7 -3 16 -2 19 1 4 3 -2 6 -13 5 -11 0 -14 -3 -6 -6z"/>
<path d="M2395 2750 c-25 -11 1 -11 35 0 20 6 21 8 5 8 -11 0 -29 -3 -40 -8z"/>
<path d="M2348 2733 c7 -3 16 -2 19 1 4 3 -2 6 -13 5 -11 0 -14 -3 -6 -6z"/>
<path d="M2534 2703 c-9 -21 -108 -255 -220 -521 l-204 -482 0 -83 c0 -45 3
-99 6 -119 l7 -38 248 0 249 0 0 -105 c0 -58 0 -108 1 -112 0 -5 -10 -10 -23
-14 -13 -3 42 -11 122 -17 151 -13 303 -22 238 -15 l-38 4 0 130 0 129 80 0
80 0 0 120 0 120 -80 0 -80 0 0 520 0 520 -186 0 -185 0 -15 -37z m91 -990
c-6 -17 -255 -19 -255 -2 0 6 22 72 49 147 115 321 180 499 193 527 11 26 13
-19 16 -315 1 -190 0 -351 -3 -357z"/>
<path d="M4727 2708 c-8 -18 -105 -248 -216 -511 l-201 -478 0 -129 0 -130 98
0 97 -1 -45 -40 -45 -41 42 32 c24 17 45 36 48 41 4 5 76 9 161 9 l154 0 0
-115 c0 -81 -3 -115 -12 -115 -6 0 -9 -2 -6 -5 5 -5 245 19 293 30 18 4 20 11
17 69 -3 55 -1 65 15 69 16 4 16 5 1 6 -13 1 -18 10 -18 32 0 30 0 30 53 29
115 -4 107 -8 107 65 0 36 4 65 10 65 5 0 40 -30 78 -68 l68 -67 -4 -72 c-3
-58 -7 -73 -19 -73 -9 0 -14 -2 -12 -5 3 -2 25 -1 50 4 24 5 36 9 27 10 -15 1
-18 11 -18 65 0 59 2 66 39 108 22 25 65 62 95 83 63 43 74 58 20 26 -44 -26
-47 -26 -34 2 9 19 8 18 -7 -3 -29 -40 -95 -110 -104 -110 -5 0 -9 32 -9 71 0
62 4 76 31 117 l30 47 -32 -38 c-24 -29 -34 -35 -40 -25 -5 7 -9 -26 -9 -79 0
-51 -2 -93 -5 -93 -14 0 -79 69 -96 103 -11 20 -22 37 -25 37 -2 0 0 -9 6 -21
15 -27 7 -34 -20 -17 -17 11 -21 20 -17 49 3 20 2 41 -2 47 -4 6 -40 12 -81
14 l-75 3 -3 518 -2 517 -185 0 -185 0 -13 -32z m91 -655 l-3 -348 -127 -3
c-71 -1 -128 1 -128 5 -1 18 246 693 253 693 4 0 6 -156 5 -347z"/>
<path d="M4690 2721 c0 -6 4 -13 10 -16 6 -3 7 1 4 9 -7 18 -14 21 -14 7z"/>
<path d="M2278 2713 c7 -3 16 -2 19 1 4 3 -2 6 -13 5 -11 0 -14 -3 -6 -6z"/>
<path d="M2238 2703 c7 -3 16 -2 19 1 4 3 -2 6 -13 5 -11 0 -14 -3 -6 -6z"/>
<path d="M1100 2675 c-7 -9 -11 -17 -9 -20 3 -2 10 5 17 15 14 24 10 26 -8 5z"/>
<path d="M5626 2673 c-6 -14 -5 -15 5 -6 7 7 10 15 7 18 -3 3 -9 -2 -12 -12z"/>
<path d="M5509 2663 c-23 -29 -40 -63 -31 -63 5 0 15 15 23 33 13 29 18 32 57
31 26 0 38 2 30 7 -22 15 -64 10 -79 -8z"/>
<path d="M2088 2663 c7 -3 16 -2 19 1 4 3 -2 6 -13 5 -11 0 -14 -3 -6 -6z"/>
<path d="M5405 2599 c-4 -6 -5 -12 -2 -15 2 -3 7 2 10 11 7 17 1 20 -8 4z"/>
<path d="M5338 2563 c6 -2 18 -2 25 0 6 3 1 5 -13 5 -14 0 -19 -2 -12 -5z"/>
<path d="M5307 2553 c-20 -20 14 -23 231 -21 l237 3 -233 2 c-149 2 -231 7
-227 13 7 11 2 13 -8 3z"/>
<path d="M854 2426 c15 -24 18 -48 17 -145 -1 -63 -4 -117 -6 -119 -7 -7 -43
22 -58 47 -9 14 -17 20 -17 12 0 -10 -6 -10 -27 3 l-28 17 25 -23 c14 -13 44
-39 67 -58 l41 -36 -7 -242 c-5 -198 -9 -245 -21 -252 -10 -7 -11 -10 -2 -10
9 0 12 -29 12 -110 0 -60 -4 -110 -9 -110 -5 0 -16 11 -25 25 -9 13 -25 29
-37 35 -18 10 -19 10 -10 -8 5 -10 17 -25 26 -32 9 -7 20 -22 26 -32 9 -16 7
-17 -17 -8 -44 17 -39 3 6 -20 39 -20 47 -21 89 -9 30 9 39 15 27 17 -17 4
-14 9 20 39 l39 35 -39 -21 c-35 -20 -38 -20 -31 -4 17 43 18 53 1 47 -14 -5
-16 3 -16 60 0 46 4 66 13 66 9 0 9 2 1 8 -8 5 -13 66 -15 189 l-4 183 28 9
c15 6 27 14 27 18 0 4 20 21 45 36 52 33 60 45 14 21 -30 -15 -32 -15 -25 2 4
13 -1 10 -16 -8 -21 -23 -57 -48 -72 -48 -11 0 -6 181 5 202 8 15 8 19 0 14
-7 -5 -11 10 -11 45 0 41 6 60 27 88 l26 36 -25 -23 -25 -23 -6 39 c-4 22 -17
47 -29 58 l-22 19 18 -29z"/>
<path d="M5943 2347 c13 -21 17 -50 17 -137 0 -123 -8 -136 -54 -77 -14 17
-26 26 -26 18 0 -11 -3 -11 -17 -1 -10 7 7 -12 38 -41 l56 -54 -10 -315 c-6
-212 -13 -318 -21 -323 -6 -5 0 -6 14 -3 14 3 31 6 38 6 11 0 12 46 6 250 l-7
250 31 6 c18 4 29 10 27 15 -3 4 4 13 15 19 11 6 18 15 15 20 -3 5 -22 -2 -43
-16 l-37 -26 -5 84 c-3 46 -2 93 2 106 5 15 4 21 -2 17 -6 -4 -10 13 -10 44 0
39 6 56 27 83 16 20 19 26 7 16 -29 -25 -34 -23 -34 20 0 28 -6 41 -22 51 -22
14 -22 14 -5 -12z"/>
<path d="M6348 2289 c19 -32 22 -51 22 -147 0 -61 -3 -113 -8 -115 -11 -7 -47
25 -66 58 -13 24 -15 25 -10 7 6 -24 6 -24 -23 -7 l-28 17 30 -27 c17 -15 45
-41 64 -57 l34 -30 -7 -221 c-4 -122 -7 -259 -6 -305 1 -46 -2 -103 -6 -128
l-6 -45 -24 21 c-40 38 -46 17 -8 -28 40 -48 40 -58 -1 -42 -48 18 -39 2 14
-24 59 -30 79 -31 146 -5 l50 19 -45 -6 -45 -6 42 30 c60 45 74 75 15 34 -50
-34 -53 -34 -31 7 28 55 20 72 -11 22 -14 -22 -27 -41 -30 -41 -3 0 -7 53 -8
117 -1 64 -4 125 -8 135 -4 13 4 21 28 32 l33 15 -32 -6 -33 -5 0 136 0 137
30 13 c17 7 28 15 25 18 -3 3 15 18 40 32 50 30 62 45 15 21 -27 -14 -29 -14
-24 2 4 12 -2 9 -17 -9 -13 -14 -35 -31 -47 -38 l-24 -12 4 111 c1 61 0 111
-4 111 -5 0 -8 21 -8 46 0 37 7 55 32 88 l32 41 -32 -29 -32 -30 -1 65 c-1 35
-3 56 -6 46 -5 -18 -5 -18 -26 0 -20 18 -20 17 1 -18z"/>
<path d="M525 2169 c-4 -6 -5 -12 -2 -15 2 -3 7 2 10 11 7 17 1 20 -8 4z"/>
<path d="M522 2111 c-2 -32 -3 -33 -20 -18 -10 10 -23 17 -28 17 -5 0 4 -10
19 -23 l29 -22 -8 -142 c-6 -135 -8 -142 -25 -132 -11 5 -19 7 -19 4 0 -6 216
-115 227 -114 5 0 -31 20 -79 45 l-88 44 0 110 c0 99 2 110 20 120 11 6 20 15
20 21 0 6 -8 3 -17 -7 -17 -17 -18 -14 -24 57 -3 41 -6 59 -7 40z"/>
<path d="M6750 2059 c0 -5 5 -7 10 -4 6 3 10 8 10 11 0 2 -4 4 -10 4 -5 0 -10
-5 -10 -11z"/>
<path d="M6752 2013 c-2 -34 -18 -44 -28 -18 -4 8 -11 15 -18 15 -6 0 1 -12
17 -25 30 -27 33 -54 20 -213 -5 -76 -8 -84 -32 -97 -14 -8 -22 -14 -18 -15
13 0 268 123 263 127 -2 2 -45 -16 -95 -41 -50 -25 -93 -46 -96 -46 -3 0 -5
41 -5 90 0 86 1 92 28 116 l27 25 -27 -16 -27 -17 -4 74 c-1 40 -4 58 -5 41z"/>
<path d="M302 1898 c30 -26 88 -62 88 -55 0 2 -26 21 -57 41 -32 20 -46 27
-31 14z"/>
<path d="M6910 1866 c0 -2 14 -14 30 -26 17 -12 30 -19 30 -16 0 2 -13 14 -30
26 -16 12 -30 19 -30 16z"/>
<path d="M7039 1839 l-24 -20 28 17 c15 9 27 18 27 20 0 8 -8 4 -31 -17z"/>
<path d="M400 1836 c0 -3 9 -10 20 -16 11 -6 20 -8 20 -6 0 3 -9 10 -20 16
-11 6 -20 8 -20 6z"/>
<path d="M1431 1750 c-1 -36 -5 -82 -9 -104 l-7 -38 -45 49 c-25 27 -51 58
-58 69 -11 17 -11 17 -2 -3 13 -27 8 -28 -28 -7 -24 14 -24 14 3 -7 17 -13 54
-46 84 -74 l53 -50 -4 -77 c-4 -58 -2 -78 8 -78 7 0 21 -3 31 -6 11 -4 14 -3
6 3 -6 4 -13 40 -14 81 l-3 72 44 46 c25 25 66 59 93 76 55 37 63 50 11 19
-44 -26 -47 -26 -34 -1 6 11 8 20 6 20 -3 0 -12 -13 -21 -29 -15 -30 -84 -101
-97 -101 -12 0 -9 148 2 155 5 3 15 16 21 28 10 22 10 22 -10 -1 l-20 -22 -4
22 c-2 13 -5 -6 -6 -42z"/>
<path d="M1990 1780 c0 -5 5 -10 11 -10 5 0 7 5 4 10 -3 6 -8 10 -11 10 -2 0
-4 -4 -4 -10z"/>
<path d="M2013 1753 c-8 -3 -13 -23 -13 -49 0 -41 -11 -57 -25 -34 -3 6 -12
10 -18 10 -7 -1 0 -11 15 -23 l26 -22 -5 -157 c-6 -150 -7 -158 -26 -158 -34
0 -14 -7 38 -14 36 -4 44 -3 28 4 -22 9 -23 14 -23 129 0 117 0 119 26 136 14
9 23 19 20 23 -4 3 -12 0 -18 -6 -7 -7 -16 -12 -20 -12 -13 0 -9 155 4 168 13
13 11 14 -9 5z"/>
<path d="M740 1660 c8 -5 20 -10 25 -10 6 0 3 5 -5 10 -8 5 -19 10 -25 10 -5
0 -3 -5 5 -10z"/>
<path d="M790 1640 c8 -5 20 -10 25 -10 6 0 3 5 -5 10 -8 5 -19 10 -25 10 -5
0 -3 -5 5 -10z"/>
<path d="M6630 1640 c-8 -5 -10 -10 -5 -10 6 0 17 5 25 10 8 5 11 10 5 10 -5
0 -17 -5 -25 -10z"/>
<path d="M6580 1620 c-8 -5 -10 -10 -5 -10 6 0 17 5 25 10 8 5 11 10 5 10 -5
0 -17 -5 -25 -10z"/>
<path d="M6530 1600 c-8 -5 -10 -10 -5 -10 6 0 17 5 25 10 8 5 11 10 5 10 -5
0 -17 -5 -25 -10z"/>
<path d="M1000 1560 c8 -5 20 -10 25 -10 6 0 3 5 -5 10 -8 5 -19 10 -25 10 -5
0 -3 -5 5 -10z"/>
<path d="M1055 1540 c27 -12 43 -12 25 0 -8 5 -22 9 -30 9 -10 0 -8 -3 5 -9z"/>
<path d="M1138 1513 c7 -3 16 -2 19 1 4 3 -2 6 -13 5 -11 0 -14 -3 -6 -6z"/>
<path d="M6188 1483 c7 -3 16 -2 19 1 4 3 -2 6 -13 5 -11 0 -14 -3 -6 -6z"/>
<path d="M1268 1473 c7 -3 16 -2 19 1 4 3 -2 6 -13 5 -11 0 -14 -3 -6 -6z"/>
<path d="M6118 1463 c7 -3 16 -2 19 1 4 3 -2 6 -13 5 -11 0 -14 -3 -6 -6z"/>
<path d="M1338 1453 c7 -3 16 -2 19 1 4 3 -2 6 -13 5 -11 0 -14 -3 -6 -6z"/>
<path d="M1378 1443 c7 -3 16 -2 19 1 4 3 -2 6 -13 5 -11 0 -14 -3 -6 -6z"/>
<path d="M6048 1443 c7 -3 16 -2 19 1 4 3 -2 6 -13 5 -11 0 -14 -3 -6 -6z"/>
<path d="M5195 1417 c-4 -16 -16 -28 -28 -30 -21 -4 -21 -4 1 -6 16 -1 25 7
33 25 5 15 7 29 5 32 -3 2 -8 -7 -11 -21z"/>
<path d="M6008 1433 c7 -3 16 -2 19 1 4 3 -2 6 -13 5 -11 0 -14 -3 -6 -6z"/>
<path d="M1538 1403 c7 -3 16 -2 19 1 4 3 -2 6 -13 5 -11 0 -14 -3 -6 -6z"/>
<path d="M5888 1403 c7 -3 16 -2 19 1 4 3 -2 6 -13 5 -11 0 -14 -3 -6 -6z"/>
<path d="M1578 1393 c7 -3 16 -2 19 1 4 3 -2 6 -13 5 -11 0 -14 -3 -6 -6z"/>
<path d="M5848 1393 c7 -3 16 -2 19 1 4 3 -2 6 -13 5 -11 0 -14 -3 -6 -6z"/>
<path d="M1618 1383 c7 -3 16 -2 19 1 4 3 -2 6 -13 5 -11 0 -14 -3 -6 -6z"/>
<path d="M5808 1383 c7 -3 16 -2 19 1 4 3 -2 6 -13 5 -11 0 -14 -3 -6 -6z"/>
<path d="M1668 1373 c7 -3 16 -2 19 1 4 3 -2 6 -13 5 -11 0 -14 -3 -6 -6z"/>
<path d="M5758 1373 c7 -3 16 -2 19 1 4 3 -2 6 -13 5 -11 0 -14 -3 -6 -6z"/>
<path d="M1708 1363 c7 -3 16 -2 19 1 4 3 -2 6 -13 5 -11 0 -14 -3 -6 -6z"/>
<path d="M5718 1363 c7 -3 16 -2 19 1 4 3 -2 6 -13 5 -11 0 -14 -3 -6 -6z"/>
<path d="M1758 1353 c7 -3 16 -2 19 1 4 3 -2 6 -13 5 -11 0 -14 -3 -6 -6z"/>
<path d="M5668 1353 c7 -3 16 -2 19 1 4 3 -2 6 -13 5 -11 0 -14 -3 -6 -6z"/>
<path d="M1808 1343 c7 -3 16 -2 19 1 4 3 -2 6 -13 5 -11 0 -14 -3 -6 -6z"/>
<path d="M1146 1318 c-3 -13 -6 -39 -6 -58 0 -19 -3 -45 -6 -56 -5 -20 -9 -19
-50 22 -73 74 -90 52 -22 -29 l42 -50 -30 7 c-16 4 -37 9 -46 12 -37 11 -16
-13 38 -44 55 -31 59 -32 179 -32 l122 0 -7 38 c-3 20 -11 46 -17 57 -7 13 -8
36 -3 65 5 25 6 47 3 50 -3 3 -17 -11 -32 -29 -14 -19 -37 -46 -49 -60 -20
-21 -22 -22 -16 -6 14 39 16 75 5 75 -6 0 -11 -3 -11 -7 0 -5 -13 -24 -29 -43
l-29 -34 5 46 c7 56 -2 98 -21 98 -8 0 -16 -10 -20 -22z"/>
<path d="M1858 1333 c7 -3 16 -2 19 1 4 3 -2 6 -13 5 -11 0 -14 -3 -6 -6z"/>
<path d="M1908 1323 c6 -2 18 -2 25 0 6 3 1 5 -13 5 -14 0 -19 -2 -12 -5z"/>
<path d="M5508 1323 c6 -2 18 -2 25 0 6 3 1 5 -13 5 -14 0 -19 -2 -12 -5z"/>
<path d="M1393 1280 c14 -11 29 -30 32 -41 4 -11 9 -18 12 -16 8 9 -25 64 -42
71 -28 10 -29 7 -2 -14z"/>
<path d="M2078 1293 c6 -2 18 -2 25 0 6 3 1 5 -13 5 -14 0 -19 -2 -12 -5z"/>
<path d="M5338 1293 c6 -2 18 -2 25 0 6 3 1 5 -13 5 -14 0 -19 -2 -12 -5z"/>
<path d="M6681 1268 c-1 -28 -6 -38 -22 -43 -17 -6 -19 -9 -8 -16 25 -16 54
-9 74 19 17 25 17 26 1 12 -18 -14 -18 -13 -12 10 7 23 6 24 -6 5 -12 -19 -13
-18 -19 15 l-6 35 -2 -37z"/>
<path d="M2138 1283 c6 -2 18 -2 25 0 6 3 1 5 -13 5 -14 0 -19 -2 -12 -5z"/>
<path d="M4418 1275 c6 -11 21 -29 34 -40 22 -19 22 -19 -2 10 -40 48 -43 51
-32 30z"/>
<path d="M5278 1283 c6 -2 18 -2 25 0 6 3 1 5 -13 5 -14 0 -19 -2 -12 -5z"/>
<path d="M2203 1273 c9 -2 23 -2 30 0 6 3 -1 5 -18 5 -16 0 -22 -2 -12 -5z"/>
<path d="M5208 1273 c6 -2 18 -2 25 0 6 3 1 5 -13 5 -14 0 -19 -2 -12 -5z"/>
<path d="M1947 1249 c-4 -13 -7 -46 -7 -73 l0 -49 -39 44 c-49 55 -63 47 -16
-8 40 -47 44 -58 14 -43 -11 6 -25 10 -32 7 -6 -2 10 -14 36 -26 l47 -23 57
21 c52 18 54 20 18 15 l-40 -6 30 20 c17 10 37 27 45 38 13 16 10 15 -23 -4
-43 -25 -54 -28 -39 -9 6 7 16 26 21 42 11 29 11 30 -6 9 -10 -11 -26 -31 -35
-45 -16 -24 -17 -23 -11 27 6 58 -9 105 -20 63z"/>
<path d="M2273 1263 c9 -2 23 -2 30 0 6 3 -1 5 -18 5 -16 0 -22 -2 -12 -5z"/>
<path d="M5143 1263 c9 -2 23 -2 30 0 6 3 -1 5 -18 5 -16 0 -22 -2 -12 -5z"/>
<path d="M6630 1262 c0 -5 7 -15 15 -22 8 -7 15 -8 15 -2 0 5 -7 15 -15 22 -8
7 -15 8 -15 2z"/>
<path d="M2343 1253 c9 -2 23 -2 30 0 6 3 -1 5 -18 5 -16 0 -22 -2 -12 -5z"/>
<path d="M2423 1243 c9 -2 23 -2 30 0 6 3 -1 5 -18 5 -16 0 -22 -2 -12 -5z"/>
<path d="M2503 1233 c9 -2 25 -2 35 0 9 3 1 5 -18 5 -19 0 -27 -2 -17 -5z"/>
<path d="M4462 1205 c-13 -7 -19 -14 -12 -17 7 -2 -3 -20 -24 -43 -20 -21 -36
-43 -36 -47 0 -4 27 -8 59 -8 l59 0 -10 37 c-5 20 -8 49 -6 65 5 31 3 32 -30
13z"/>
<path d="M4528 1202 c9 -10 19 -17 21 -16 6 5 -20 34 -30 34 -5 0 -1 -8 9 -18z"/>
<path d="M4708 1213 c12 -2 30 -2 40 0 9 3 -1 5 -23 4 -22 0 -30 -2 -17 -4z"/>
<path d="M1441 1203 c0 -7 10 -29 24 -49 14 -20 25 -43 25 -50 0 -8 10 -14 23
-14 20 0 23 4 19 30 -2 18 -13 35 -25 42 -21 11 -21 11 -2 20 14 6 8 7 -17 3
-29 -5 -37 -2 -41 12 -3 10 -5 13 -6 6z"/>
<path d="M4598 1203 c12 -2 30 -2 40 0 9 3 -1 5 -23 4 -22 0 -30 -2 -17 -4z"/>
<path d="M3078 1183 c17 -2 47 -2 65 0 17 2 3 4 -33 4 -36 0 -50 -2 -32 -4z"/>
<path d="M4308 1183 c18 -2 45 -2 60 0 15 2 0 4 -33 4 -33 0 -45 -2 -27 -4z"/>
<path d="M1540 1170 c8 -5 20 -10 25 -10 6 0 3 5 -5 10 -8 5 -19 10 -25 10 -5
0 -3 -5 5 -10z"/>
<path d="M4053 1173 c26 -2 68 -2 95 0 26 2 4 3 -48 3 -52 0 -74 -1 -47 -3z"/>
<path d="M4556 1155 c13 -50 54 -87 54 -49 0 17 -23 44 -38 44 -6 0 -12 3 -15
8 -2 4 -3 3 -1 -3z"/>
<path d="M5623 1158 c-16 -19 -33 -145 -33 -239 l0 -82 -76 82 c-77 82 -128
119 -139 101 -10 -16 19 -61 96 -149 40 -47 65 -82 57 -78 -51 19 -161 47
-166 42 -11 -10 32 -42 126 -94 l92 -51 465 0 c448 0 465 1 465 19 0 10 -8 25
-17 32 -15 11 -16 11 -5 -1 27 -31 14 -40 -61 -40 -82 0 -112 17 -97 55 15 35
11 44 -30 71 -46 30 -50 41 -17 47 17 3 15 5 -8 6 -17 0 -40 -6 -52 -14 -20
-14 -23 -13 -37 7 -9 12 -16 19 -16 15 0 -5 13 -27 29 -50 37 -55 61 -102 61
-122 0 -13 -18 -15 -113 -15 -112 0 -114 0 -125 25 -7 14 -12 42 -12 61 0 20
-12 57 -27 83 -26 47 -26 48 -10 94 9 26 12 49 7 52 -11 7 8 55 29 73 13 10
12 12 -6 12 -25 0 -61 -35 -128 -125 -45 -60 -111 -125 -129 -125 -2 0 10 22
29 50 32 47 62 146 49 159 -8 8 -64 -57 -116 -135 -23 -35 -43 -62 -45 -60 -2
2 1 23 6 47 14 61 13 199 -2 228 -15 30 -30 36 -44 19z"/>
<path d="M1587 1129 c12 -12 24 -21 27 -18 2 2 -8 13 -22 23 l-27 19 22 -24z"/>
<path d="M3890 1108 c0 -27 -3 -48 -7 -48 -4 0 -18 10 -31 23 -26 23 -21 7 7
-27 15 -18 15 -18 -9 -12 l-25 7 25 -15 c28 -17 65 -19 95 -5 18 8 17 9 -5 5
-24 -5 -24 -5 5 20 17 14 24 22 16 18 -8 -4 -25 -8 -39 -10 -22 -2 -23 0 -18
29 3 18 1 39 -4 47 -7 11 -10 2 -10 -32z"/>
<path d="M4601 1147 c2 -1 14 -11 27 -21 12 -11 22 -16 22 -13 0 10 -31 37
-42 37 -6 0 -9 -1 -7 -3z"/>
<path d="M3930 1095 c-7 -9 -10 -18 -7 -21 3 -3 10 4 17 15 13 25 8 27 -10 6z"/>
<path d="M6055 1074 c17 -9 41 -28 53 -42 21 -24 23 -24 12 -4 -11 23 -66 62
-85 62 -5 -1 4 -8 20 -16z"/>
<path d="M2477 1019 c-4 -13 -7 -43 -7 -66 0 -24 -2 -43 -5 -43 -3 0 -20 17
-39 37 -47 52 -55 37 -9 -17 38 -44 37 -46 -24 -23 -29 11 -10 -8 27 -27 45
-23 81 -24 130 -4 l35 14 -32 -5 c-18 -2 -33 -3 -33 -1 0 3 16 14 35 26 19 12
35 26 35 32 0 5 -16 0 -36 -13 l-36 -22 16 31 c25 48 19 61 -9 19 -14 -20 -28
-37 -30 -37 -3 0 -2 20 1 44 7 51 -9 95 -19 55z"/>
<path d="M6131 1000 c-1 -3 8 -27 19 -55 10 -27 19 -43 19 -35 0 14 -36 101
-38 90z"/>
<path d="M6310 866 c0 -2 9 -6 20 -9 11 -3 18 -1 14 4 -5 9 -34 13 -34 5z"/>
<path d="M6361 846 c2 -2 15 -9 29 -15 24 -11 24 -11 6 3 -16 13 -49 24 -35
12z"/>
</g>
</svg>
